<?xml version="1.0" encoding="utf-8"?>
<!-- Generator: Adobe Illustrator 16.0.0, SVG Export Plug-In . SVG Version: 6.00 Build 0)  -->
<!DOCTYPE svg PUBLIC "-//W3C//DTD SVG 1.1//EN" "http://www.w3.org/Graphics/SVG/1.1/DTD/svg11.dtd">
<svg version="1.1" xmlns="http://www.w3.org/2000/svg" xmlns:xlink="http://www.w3.org/1999/xlink" x="0px" y="0px" width="64px"
	 height="64px" viewBox="0 0 64 64" enable-background="new 0 0 64 64" xml:space="preserve">
<g id="Ebene_1_Kopie">
	<g>
		<circle cx="61.968" cy="18.026" r="1.356"/>
		<circle cx="61.968" cy="42.471" r="1.356"/>
		<circle cx="57.901" cy="39.572" r="1.356"/>
		<circle cx="53.834" cy="37.188" r="1.355"/>
		<circle cx="57.901" cy="20.379" r="1.356"/>
		<circle cx="53.834" cy="23.036" r="1.355"/>
		<circle cx="50.177" cy="25.345" r="1.356"/>
		<circle cx="57.901" cy="34.475" r="1.356"/>
		<circle cx="60.612" cy="29.736" r="1.355"/>
		<circle cx="61.968" cy="37.188" r="1.356"/>
		<circle cx="46.244" cy="27.515" r="1.356"/>
		<circle cx="46.244" cy="31.51" r="1.356"/>
		<circle cx="49.999" cy="29.736" r="1.355"/>
		<circle cx="53.834" cy="27.515" r="1.355"/>
		<circle cx="53.834" cy="31.766" r="1.355"/>
		<circle cx="49.999" cy="33.794" r="1.355"/>
		<circle cx="61.968" cy="23.036" r="1.356"/>
		<circle cx="57.901" cy="25.561" r="1.356"/>
		<g>
			<path fill-rule="evenodd" clip-rule="evenodd" d="M0.737,37.31h12.121l15.055-19.025l10.39-0.003
				c3.156,0,3.156,3.221,3.156,3.221s0,3.22-3.156,3.22c-1.622,0.014-6.059,0.045-6.059,0.045s0.01,0.343-0.006,0.603
				c-0.103,1.539-0.071,3.105-0.354,4.609c-0.411,2.19-1.08,4.322-1.774,6.449c-0.776,2.384-2.07,4.345-3.929,5.86
				c-1.75,1.426-3.729,2.556-5.909,3.215c-1.531,0.461-3.093,0.819-4.708,0.652c-0.494-0.051-0.977-0.235-1.584-0.39
				c-0.026,0.579-0.049,1.089-0.072,1.592c0.862,0.157,1.664,0.448,2.456,0.422c2.387-0.076,4.694-0.538,6.893-1.591
				c1.711-0.82,3.372-1.725,5.026-2.646c0.825-0.461,2.593-1.474,2.593-1.474v13.283c0,0-20.09,0-30.141,0
				C0.737,49.338,0.737,37.31,0.737,37.31z"/>
			<path fill-rule="evenodd" clip-rule="evenodd" d="M39.175,39.572c1.317-0.002,4.799-0.016,7.101,0
				c2.367,0,2.367-2.718,2.367-2.718s0-2.806-2.367-2.806c-0.567-0.03-2.367,0-2.367,0v-7.891H33.652v13.414c0,0,1.747,0,2.367,0
				c0-3.848,0-11.047,0-11.047h5.523v5.523c0,0-0.656-0.015-2.367,0c-2.367,0-2.334,2.806-2.334,2.806S36.809,39.572,39.175,39.572z
				"/>
			<path fill-rule="evenodd" clip-rule="evenodd" d="M47.958,41.114c2.323,0.002,2.471,3.194,2.471,3.194s-0.104,3.118-2.471,3.118
				c-2.891,0-8.943-0.018-11.834,0c-2.368,0-2.368-3.156-2.368-3.156s-0.076-3.156,2.368-3.156H47.958z"/>
			<path fill-rule="evenodd" clip-rule="evenodd" d="M38.593,49.006c-2.367,0-2.47,3.155-2.47,3.155s0.104,3.155,2.47,3.155
				c0,0,5.031,0,7.101,0c2.367,0,2.367-3.118,2.367-3.118s0-3.192-2.367-3.192H38.593z"/>
		</g>
	</g>
</g>
<g id="Ebene_2">
</g>
</svg>
