<?xml version="1.0" encoding="utf-8"?>
<!-- Generator: Adobe Illustrator 16.0.0, SVG Export Plug-In . SVG Version: 6.00 Build 0)  -->
<!DOCTYPE svg PUBLIC "-//W3C//DTD SVG 1.1//EN" "http://www.w3.org/Graphics/SVG/1.1/DTD/svg11.dtd">
<svg version="1.1" xmlns="http://www.w3.org/2000/svg" xmlns:xlink="http://www.w3.org/1999/xlink" x="0px" y="0px" width="64px"
	 height="63.875px" viewBox="0 0 64 63.875" enable-background="new 0 0 64 63.875" xml:space="preserve">
<g id="Ebene_1_Kopie">
	<polygon points="5.428,37.063 5.428,37.373 10.241,37.373 10.241,37.063 5.883,37.063 8.978,34.402 5.883,31.753 10.241,31.753 
		10.241,31.444 5.428,31.444 5.428,31.753 8.551,34.402 	"/>
	<polygon points="7.611,44.383 5.428,44.383 5.428,44.692 10.241,44.692 10.241,44.383 7.839,44.383 7.839,40.89 10.241,40.89 
		10.241,40.581 5.428,40.581 5.428,40.89 7.611,40.89 	"/>
	<polygon points="7.934,47.591 7.706,47.591 7.706,49.848 5.655,49.848 5.655,47.472 5.428,47.472 5.428,50.157 10.241,50.157 
		10.241,47.472 10.013,47.472 10.013,49.848 7.934,49.848 	"/>
	<polygon points="5.428,55.396 10.241,55.396 10.241,52.426 10.013,52.426 10.013,55.087 5.428,55.087 	"/>
	<polygon points="5.428,12.993 5.428,13.303 10.241,13.303 10.241,12.993 5.855,12.993 10.241,9.073 10.241,8.764 5.428,8.764 
		5.428,9.073 9.813,9.073 	"/>
	<polygon points="5.428,20.573 5.428,20.883 10.241,20.883 10.241,20.573 5.855,20.573 10.241,16.653 10.241,16.344 5.428,16.344 
		5.428,16.653 9.813,16.653 	"/>
	<g>
		<polygon fill-rule="evenodd" clip-rule="evenodd" points="9.035,26.657 9.035,25.588 7.924,26.122 		"/>
		<path fill-rule="evenodd" clip-rule="evenodd" d="M10.241,28.309l-0.475-0.227v-3.92l0.475-0.227v-0.332l-4.813,2.293v0.451
			l4.813,2.293V28.309z M9.538,27.976l-3.883-1.854l3.883-1.854V27.976z"/>
		<path fill-rule="evenodd" clip-rule="evenodd" d="M16,4H0v56.208h16V30l24,30h20L16,4z M11,56.584H4.668v-2.638h4.671v-2.186H11
			V56.584z M11,51.345H4.668v-4.669H6.33v2.139h0.702v-2.104h1.576v2.104h0.731v-2.222H11V51.345z M11,41.936H8.655v1.414H11v2.53
			H4.668v-2.53h2.155v-1.414H4.668v-2.542H11V41.936z M11,32.787H8.722l1.898,1.615L8.722,36.03H11v2.53H4.668V36.47l2.43-2.067
			l-2.43-2.056v-2.091H11V32.787z M11,24.661l-0.57,0.261v2.4L11,27.583v2.495l-6.332-3.006v-1.9L11,22.166V24.661z M11,17.33
			l-2.43,2.174H11v2.483H4.668v-2.079l2.44-2.186h-2.44v-2.483H11V17.33z M11,9.75l-2.43,2.174H11v2.483H4.668v-2.079l2.44-2.186
			h-2.44V7.659H11V9.75z M15.999,19.101v-3.401L46.24,54.424h-2.602L15.999,19.101z"/>
	</g>
</g>
<g id="Ebene_2">
</g>
</svg>
