<?xml version="1.0" encoding="utf-8"?>
<!-- Generator: Adobe Illustrator 16.0.0, SVG Export Plug-In . SVG Version: 6.00 Build 0)  -->
<!DOCTYPE svg PUBLIC "-//W3C//DTD SVG 1.1//EN" "http://www.w3.org/Graphics/SVG/1.1/DTD/svg11.dtd">
<svg version="1.1" xmlns="http://www.w3.org/2000/svg" xmlns:xlink="http://www.w3.org/1999/xlink" x="0px" y="0px" width="64px"
	 height="63.875px" viewBox="0 0 64 63.875" enable-background="new 0 0 64 63.875" xml:space="preserve">
<g id="Ebene_1_Kopie">
	<path fill-rule="evenodd" clip-rule="evenodd" d="M62,30.15l-18.851-0.028V10.318h-1.888v43.655h1.888l0.018-21.605H62v7.227
		H49.467v20.267H34V3.875h15.467v19.101H62V30.15z"/>
	<g>
		<g>
			<path fill-rule="evenodd" clip-rule="evenodd" d="M-51.785,3.875h-19.194v56.083h19.194V29.817l28.792,29.934H0.999
				L-51.785,3.875z M-57.783,56.342h-7.596V53.71h5.603v-2.181h1.993V56.342z M-57.783,51.114h-7.596v-4.658h1.993v2.133h0.842
				v-2.098h1.891v2.098h0.876v-2.216h1.993V51.114z M-57.783,41.727h-2.813v1.41h2.813v2.524h-7.596v-2.524h2.585v-1.41h-2.585
				v-2.537h7.596V41.727z M-57.783,32.598h-2.733l2.277,1.612l-2.277,1.624h2.733v2.524h-7.596v-2.086l2.915-2.062l-2.915-2.052
				v-2.086h7.596V32.598z M-57.783,24.49l-0.684,0.261v2.395l0.684,0.26v2.489l-7.596-2.999V25l7.596-3V24.49z M-57.783,17.175
				l-2.916,2.169h2.916v2.479h-7.596v-2.076l2.927-2.18h-2.927v-2.479h7.596V17.175z M-57.783,9.612l-2.916,2.169h2.916v2.478
				h-7.596v-2.073l2.927-2.182h-2.927V7.526h7.596V9.612z M-51.787,18.941v-3.394l36.279,38.639h-3.121L-51.787,18.941z"/>
		</g>
	</g>
</g>
<g id="Ebene_2">
</g>
</svg>
