<?xml version="1.0" encoding="utf-8"?>
<!-- Generator: Adobe Illustrator 16.0.0, SVG Export Plug-In . SVG Version: 6.00 Build 0)  -->
<!DOCTYPE svg PUBLIC "-//W3C//DTD SVG 1.1//EN" "http://www.w3.org/Graphics/SVG/1.1/DTD/svg11.dtd">
<svg version="1.1" xmlns="http://www.w3.org/2000/svg" xmlns:xlink="http://www.w3.org/1999/xlink" x="0px" y="0px" width="64px"
	 height="63.875px" viewBox="0 0 64 63.875" enable-background="new 0 0 64 63.875" xml:space="preserve">
<g id="Ebene_1_Kopie">
	<g>
		<polygon points="5.809,37.696 5.809,38.049 10.941,38.049 10.941,37.696 6.295,37.696 9.595,34.662 6.295,31.642 10.941,31.642 
			10.941,31.289 5.809,31.289 5.809,31.642 9.139,34.662 		"/>
		<polygon points="8.137,46.041 5.809,46.041 5.809,46.394 10.941,46.394 10.941,46.041 8.38,46.041 8.38,42.058 10.941,42.058 
			10.941,41.706 5.809,41.706 5.809,42.058 8.137,42.058 		"/>
		<polygon points="8.481,49.698 8.238,49.698 8.238,52.271 6.052,52.271 6.052,49.562 5.809,49.562 5.809,52.624 10.941,52.624 
			10.941,49.562 10.698,49.562 10.698,52.271 8.481,52.271 		"/>
		<polygon points="5.809,58.598 10.941,58.598 10.941,55.211 10.698,55.211 10.698,58.244 5.809,58.244 		"/>
		<polygon points="5.809,10.253 5.809,10.606 10.941,10.606 10.941,10.253 6.265,10.253 10.941,5.784 10.941,5.431 5.809,5.431 
			5.809,5.784 10.486,5.784 		"/>
		<polygon points="5.809,18.896 5.809,19.248 10.941,19.248 10.941,18.896 6.265,18.896 10.941,14.426 10.941,14.073 5.809,14.073 
			5.809,14.426 10.486,14.426 		"/>
		<g>
			<polygon fill-rule="evenodd" clip-rule="evenodd" points="9.656,25.832 9.656,24.612 8.471,25.222 			"/>
			<path fill-rule="evenodd" clip-rule="evenodd" d="M10.941,27.714l-0.506-0.258v-4.469l0.506-0.259V22.35l-5.132,2.614v0.515
				l5.132,2.614V27.714z M10.192,27.335l-4.14-2.113l4.14-2.113V27.335z"/>
			<path fill-rule="evenodd" clip-rule="evenodd" d="M17.083,0H0.021v64.083h17.061v-34.44l25.591,34.203H64L17.083,0z
				 M11.751,59.951H4.999v-3.007h4.98v-2.492h1.771V59.951z M11.751,53.978H4.999v-5.322h1.772v2.438H7.52v-2.397H9.2v2.397h0.779
				v-2.532h1.771V53.978z M11.751,43.251h-2.5v1.611h2.5v2.885H4.999v-2.885h2.298v-1.611H4.999v-2.898h6.752V43.251z M11.751,32.82
				h-2.43l2.024,1.842l-2.024,1.855h2.43v2.885H4.999v-2.384l2.591-2.356l-2.591-2.344v-2.384h6.752V32.82z M11.751,23.556
				l-0.608,0.298v2.736l0.608,0.297v2.845l-6.752-3.427v-2.167l6.752-3.427V23.556z M11.751,15.197L9.16,17.676h2.591v2.832H4.999
				v-2.371l2.602-2.491H4.999v-2.832h6.752V15.197z M11.751,6.556L9.16,9.034h2.591v2.831H4.999v-2.37l2.602-2.492H4.999V4.172
				h6.752V6.556z M17.081,17.216v-3.878l32.247,44.15h-2.774L17.081,17.216z"/>
		</g>
	</g>
</g>
<g id="Ebene_2">
</g>
</svg>
