<?xml version="1.0" encoding="utf-8"?>
<!-- Generator: Adobe Illustrator 19.2.1, SVG Export Plug-In . SVG Version: 6.00 Build 0)  -->
<svg version="1.1" id="Ebene_1" xmlns="http://www.w3.org/2000/svg" xmlns:xlink="http://www.w3.org/1999/xlink" x="0px" y="0px"
	 viewBox="0 0 150 150" style="enable-background:new 0 0 150 150;" xml:space="preserve">
<style type="text/css">
	.st0{fill:#FFFFFF;}
</style>
<g>
	<path class="st0" d="M149.8,145.3L117.5,113c11-12,17.8-28,17.8-45.5C135.3,30.3,105.1,0,67.9,0S0.5,30.3,0.5,67.4
		c0,37.2,30.2,67.4,67.4,67.4c17.9,0,34.1-7,46.2-18.4l32.3,32.3L149.8,145.3z M67.9,130c-34.5,0-62.6-28.1-62.6-62.6
		c0-34.5,28.1-62.6,62.6-62.6c34.5,0,62.6,28.1,62.6,62.6C130.5,101.9,102.4,130,67.9,130z"/>
	<path class="st0" d="M67.7,35.3c8.6,0,16.6,3.3,22.7,9.4l3.4-3.4c-7-7-16.2-10.8-26.1-10.8c-9.9,0-19.1,4.2-26.1,11.2
		C36.2,47.1,32.9,53,31.5,61H26v4h4.9c-0.1,2-0.1,3,0,5H26v5h5.5c1.4,7,4.7,13.3,10.1,18.7c7.2,7.2,16.6,10.7,26.1,10.7
		c9.5,0,18.9-3.6,26.1-10.8l-3.4-3.4c-12.5,12.5-32.9,12.6-45.4,0.1C40.6,85.9,37.8,80,36.5,75H76v-5H35.7c-0.1-2-0.1-3,0-5H79v-4
		H36.5c1.3-7,4.1-11.5,8.5-15.9C51,39.1,59.1,35.3,67.7,35.3z"/>
</g>
</svg>
