<?xml version="1.0" encoding="utf-8"?>
<!-- Generator: Adobe Illustrator 23.0.4, SVG Export Plug-In . SVG Version: 6.00 Build 0)  -->
<svg version="1.1" id="Layer_1" xmlns="http://www.w3.org/2000/svg" xmlns:xlink="http://www.w3.org/1999/xlink" x="0px" y="0px"
	 viewBox="0 0 125 128" style="enable-background:new 0 0 125 128;" xml:space="preserve">
<style type="text/css">
	.st0{fill:#DD1212;}
</style>
<g>
	<g>
		<path class="st0" d="M62.5,56l40.3,10c7-2.7,11.2-6.2,11.2-10V39.9c0-8.9-23.1-16.1-51.5-16.1C34,23.8,11,31,11,39.9V56
			C11,64.8,34,72,62.5,72V56z"/>
		<path class="st0" d="M102.8,82.1L62.5,72v16.1l40.3,10c7-2.8,11.2-6.2,11.2-10V72C114,75.8,109.8,79.3,102.8,82.1"/>
		<path class="st0" d="M11,72v16.1c0,8.9,23,16.1,51.5,16.1V88.1C34,88.1,11,80.9,11,72"/>
	</g>
</g>
</svg>
