<?xml version="1.0" encoding="utf-8"?>
<!-- Generator: Adobe Illustrator 23.0.4, SVG Export Plug-In . SVG Version: 6.00 Build 0)  -->
<svg version="1.1" id="Layer_1" xmlns="http://www.w3.org/2000/svg" xmlns:xlink="http://www.w3.org/1999/xlink" x="0px" y="0px"
	 viewBox="0 0 125 128" style="enable-background:new 0 0 125 128;" xml:space="preserve">
<style type="text/css">
	.st0{fill:#E30006;}
</style>
<g>
	<title>new_logo_1_helmet_red</title>
	<path class="st0" d="M96.2,36.7c-3.9-8.8-11.4-15-21.7-18.7c-1.8-0.7-9-4.2-11.9-6.7c0,0,0,0,0,0l0,0c-3,2.5-10.1,6.1-11.9,6.7
		c-10.4,3.7-17.8,9.8-21.8,18.7c-2.2,4.9-2.4,10.4-2.5,15.8c0,4.7,0.2,9.4,0.3,14.1c0,1.3,0.4,2.3,1.9,3.2c2,1.1,2.3,3.1,2.6,5.1
		c0.6,4.9-0.3,9.7-2.3,14.3c-2.4,5.4-0.8,8.7,4.3,13c6.4,5.4,24.5,14.6,24.5,14.6s-3.3-26-5.6-38.8c-0.1-0.6-0.2-1.3-0.2-1.9
		c-0.3-4-0.9-7.5-6.9-8.4c-3-0.4-10-7.1-10-7.1l5-3.8l16.6,1.1c0,0,2.6,1.4,2.3,2.7c-0.6,2.7-0.2,5.7-2.1,8.1
		c-2,2.6-1.4,4.5,0.8,6.8c2.3,2.4,3.6,3.9,5,3.9l0,0c0,0,0-0.1,0-0.1v0c0-0.2,2.6-1.5,4.9-3.8c2.2-2.3,2.8-4.2,0.8-6.8
		c-1.8-2.4-1.5-5.3-2.1-8c-0.3-1.3,2.3-2.7,2.3-2.7l16.6-1.1l5,3.8c0,0-7,6.6-10,7.1c-6,0.9-6.6,4.4-6.9,8.4c0,0.6-0.1,1.3-0.2,1.9
		c-2.2,12.8-5.6,38.8-5.6,38.8s18.1-9.2,24.5-14.6c5.1-4.3,6.7-7.6,4.3-13c-2.1-4.7-3-9.4-2.3-14.3c0.2-1.9,0.6-4,2.6-5.1
		c1.5-0.8,1.9-1.8,1.9-3.2c0.1-4.7,0.3-9.4,0.3-14.1C98.6,47.1,98.4,41.6,96.2,36.7z"/>
</g>
</svg>
