<?xml version="1.0" encoding="utf-8"?>
<!-- Generator: Adobe Illustrator 16.0.0, SVG Export Plug-In . SVG Version: 6.00 Build 0)  -->
<!DOCTYPE svg PUBLIC "-//W3C//DTD SVG 1.1//EN" "http://www.w3.org/Graphics/SVG/1.1/DTD/svg11.dtd">
<svg version="1.1" xmlns="http://www.w3.org/2000/svg" xmlns:xlink="http://www.w3.org/1999/xlink" x="0px" y="0px" width="64px"
	 height="64px" viewBox="0 0 64 64" enable-background="new 0 0 64 64" xml:space="preserve">
<g id="Ebene_2" display="none" opacity="0.5">
	<path display="inline" fill-rule="evenodd" clip-rule="evenodd" d="M31.885,18.245L19.328,1.262L3.782,12.756L39.455,61L55,49.506
		L41.764,31.604l9.38-6.937l-9.897-13.385L31.885,18.245z M45.327,50.44l-1.734,1.282L15.054,13.128l1.735-1.283L45.327,50.44z"/>
</g>
<g id="Ebene_1_Kopie">
	<path fill-rule="evenodd" clip-rule="evenodd" d="M19,2.001l45,60H40l-21-28v28H0.021v-60H19z M5.757,57.568v-2.743h6.081v-2.274
		H14v5.018H5.757z M13.011,53.243h-0.296v2.769H6.746v0.321h6.266V53.243z M5.757,52.118v-4.856h2.163v2.225h0.915v-2.188h2.052
		v2.188h0.952v-2.312H14v4.943H5.757z M13.011,48.09h-0.296v2.472h-2.707v-2.349H9.711v2.349H7.042V48.09H6.746v2.793h6.266V48.09z
		 M5.757,46.434v-2.632h2.806v-1.471H5.757v-2.646H14v2.646h-3.053v1.471H14v2.632H5.757z M13.011,44.877H9.885v-3.634h3.126v-0.321
		H6.746v0.321h2.842v3.634H6.746v0.321h6.266V44.877z M5.757,38.821v-2.175l3.164-2.15l-3.164-2.139v-2.175H14v2.633h-2.966
		l2.472,1.681l-2.472,1.693H14v2.632H5.757z M13.011,37.265H7.339l4.029-2.769L7.339,31.74h5.672v-0.321H6.746v0.321l4.066,2.756
		l-4.066,2.769v0.321h6.266V37.265z M5.757,26.87v-1.977L14,21.767v2.595l-0.742,0.272v2.496L14,27.402v2.595L5.757,26.87z
		 M13.011,28.156l-0.618-0.235v-4.078l0.618-0.235v-0.346l-6.266,2.386v0.469l6.266,2.386V28.156z M7.042,25.882l5.055-1.928v3.855
		L7.042,25.882z M11.442,25.326l-1.446,0.556l1.446,0.556V25.326z M5.757,21.581v-2.163l3.176-2.273H5.757v-2.583H14v2.175
		l-3.164,2.262H14v2.583H5.757z M13.011,20.11H7.302l5.709-4.078v-0.321H6.746v0.321h5.709L6.746,20.11v0.321h6.266V20.11z
		 M5.757,13.696v-2.163L8.933,9.26H5.757V6.677H14v2.175l-3.164,2.262H14v2.583H5.757z M13.011,12.226H7.302l5.709-4.078V7.826
		H6.746v0.321h5.709l-5.709,4.078v0.321h6.266V12.226z M47,57L19,20v-4l31,41H47z"/>
</g>
</svg>
